<svg width="210" height="209" viewBox="0 0 210 209" fill="none" xmlns="http://www.w3.org/2000/svg">
<path d="M207.5 104.5C207.5 160.822 161.62 206.5 105 206.5C48.3796 206.5 2.5 160.822 2.5 104.5C2.5 48.1782 48.3796 2.5 105 2.5C161.62 2.5 207.5 48.1782 207.5 104.5Z" fill="#D9D9D9" stroke="#482344" stroke-width="5"/>
<path d="M73.0866 78.5455C72.9579 77.25 72.3859 76.2197 71.3707 75.4545C70.3556 74.6894 69.0791 74.3068 67.5412 74.3068C66.4579 74.3068 65.5033 74.4924 64.6776 74.8636C63.8594 75.2348 63.2154 75.75 62.7457 76.4091C62.2836 77.0606 62.0526 77.803 62.0526 78.6364C62.0526 79.25 62.1851 79.7879 62.4503 80.25C62.7154 80.7121 63.0715 81.1098 63.5185 81.4432C63.973 81.7689 64.473 82.0492 65.0185 82.2841C65.5715 82.5189 66.1283 82.7159 66.6889 82.875L69.1435 83.5795C69.8859 83.7841 70.6283 84.0455 71.3707 84.3636C72.1132 84.6818 72.7912 85.0833 73.4048 85.5682C74.026 86.0455 74.5223 86.6326 74.8935 87.3295C75.2723 88.0189 75.4616 88.8485 75.4616 89.8182C75.4616 91.0606 75.1397 92.178 74.4957 93.1705C73.8518 94.1629 72.9276 94.9508 71.723 95.5341C70.5185 96.1098 69.0753 96.3977 67.3935 96.3977C65.8101 96.3977 64.4351 96.1364 63.2685 95.6136C62.1018 95.0833 61.1851 94.3523 60.5185 93.4205C59.8518 92.4886 59.4768 91.4091 59.3935 90.1818H61.5753C61.651 91.0985 61.9541 91.875 62.4844 92.5114C63.0147 93.1477 63.7041 93.6326 64.5526 93.9659C65.401 94.2917 66.348 94.4545 67.3935 94.4545C68.5526 94.4545 69.5829 94.2614 70.4844 93.875C71.3935 93.4811 72.1056 92.9356 72.6207 92.2386C73.1435 91.5341 73.4048 90.7159 73.4048 89.7841C73.4048 88.9962 73.2003 88.3371 72.7912 87.8068C72.3821 87.2689 71.8101 86.8182 71.0753 86.4545C70.348 86.0909 69.5033 85.7689 68.5412 85.4886L65.7571 84.6705C63.9313 84.125 62.5147 83.3712 61.5071 82.4091C60.4995 81.447 59.9957 80.2197 59.9957 78.7273C59.9957 77.4773 60.3291 76.3788 60.9957 75.4318C61.67 74.4773 62.5791 73.7348 63.723 73.2045C64.8745 72.6667 66.1662 72.3977 67.598 72.3977C69.045 72.3977 70.3253 72.6629 71.4389 73.1932C72.5526 73.7235 73.4351 74.4545 74.0866 75.3864C74.7457 76.3106 75.098 77.3636 75.1435 78.5455H73.0866ZM80.1776 96V78.5455H82.2116V96H80.1776ZM81.2116 75.5455C80.795 75.5455 80.4389 75.4053 80.1435 75.125C79.848 74.8371 79.7003 74.4924 79.7003 74.0909C79.7003 73.6894 79.848 73.3485 80.1435 73.0682C80.4389 72.7803 80.795 72.6364 81.2116 72.6364C81.6283 72.6364 81.9844 72.7803 82.2798 73.0682C82.5753 73.3485 82.723 73.6894 82.723 74.0909C82.723 74.4924 82.5753 74.8371 82.2798 75.125C81.9844 75.4053 81.6283 75.5455 81.2116 75.5455ZM89.5838 85.0909V96H87.5611V78.5455H89.527V81.2841H89.7088C90.1179 80.3902 90.7543 79.6742 91.6179 79.1364C92.4891 78.5909 93.5649 78.3182 94.8452 78.3182C96.0194 78.3182 97.0497 78.5644 97.9361 79.0568C98.83 79.5417 99.5232 80.2576 100.016 81.2045C100.516 82.1515 100.766 83.3144 100.766 84.6932V96H98.7429V84.8182C98.7429 83.3864 98.3414 82.2538 97.5384 81.4205C96.7429 80.5871 95.6747 80.1705 94.3338 80.1705C93.4171 80.1705 92.6027 80.3674 91.8906 80.7614C91.1785 81.1553 90.6141 81.7235 90.1974 82.4659C89.7884 83.2008 89.5838 84.0758 89.5838 85.0909ZM112.751 102.909C111.562 102.909 110.52 102.754 109.626 102.443C108.732 102.14 107.979 101.723 107.365 101.193C106.751 100.663 106.274 100.068 105.933 99.4091L107.592 98.3182C107.842 98.7576 108.176 99.1894 108.592 99.6136C109.017 100.038 109.566 100.39 110.24 100.67C110.922 100.951 111.759 101.091 112.751 101.091C114.297 101.091 115.543 100.705 116.49 99.9318C117.445 99.1591 117.922 97.9583 117.922 96.3295V92.3977H117.74C117.505 92.928 117.168 93.4583 116.729 93.9886C116.289 94.5114 115.714 94.947 115.001 95.2955C114.297 95.6439 113.422 95.8182 112.376 95.8182C110.982 95.8182 109.744 95.4735 108.661 94.7841C107.585 94.0947 106.736 93.1098 106.115 91.8295C105.501 90.5417 105.195 89.0076 105.195 87.2273C105.195 85.4621 105.494 83.9091 106.092 82.5682C106.698 81.2273 107.543 80.1818 108.626 79.4318C109.71 78.6818 110.971 78.3068 112.411 78.3068C113.479 78.3068 114.365 78.4962 115.07 78.875C115.774 79.2462 116.339 79.7083 116.763 80.2614C117.195 80.8144 117.532 81.3523 117.774 81.875H117.979V78.5455H119.956V96.4545C119.956 97.9318 119.642 99.1477 119.013 100.102C118.384 101.057 117.528 101.761 116.445 102.216C115.361 102.678 114.13 102.909 112.751 102.909ZM112.615 93.9659C113.736 93.9659 114.695 93.697 115.49 93.1591C116.286 92.6136 116.895 91.8333 117.32 90.8182C117.744 89.803 117.956 88.5947 117.956 87.1932C117.956 85.8295 117.748 84.6212 117.331 83.5682C116.914 82.5076 116.308 81.6742 115.513 81.0682C114.725 80.4545 113.759 80.1477 112.615 80.1477C111.448 80.1477 110.464 80.4621 109.661 81.0909C108.857 81.7197 108.251 82.5682 107.842 83.6364C107.433 84.697 107.229 85.8826 107.229 87.1932C107.229 88.5265 107.437 89.7045 107.854 90.7273C108.27 91.7424 108.88 92.5379 109.683 93.1136C110.486 93.6818 111.464 93.9659 112.615 93.9659ZM132.368 96.3636C130.739 96.3636 129.33 95.9848 128.141 95.2273C126.951 94.4621 126.031 93.4053 125.379 92.0568C124.735 90.7008 124.413 89.1402 124.413 87.375C124.413 85.6174 124.735 84.0568 125.379 82.6932C126.031 81.322 126.929 80.25 128.072 79.4773C129.224 78.697 130.554 78.3068 132.061 78.3068C133.008 78.3068 133.921 78.4811 134.8 78.8295C135.679 79.1705 136.466 79.697 137.163 80.4091C137.868 81.1136 138.425 82.0038 138.834 83.0795C139.243 84.1477 139.447 85.4129 139.447 86.875V87.875H125.811V86.0909H137.379C137.379 84.9697 137.152 83.9621 136.697 83.0682C136.25 82.1667 135.625 81.4545 134.822 80.9318C134.027 80.4091 133.107 80.1477 132.061 80.1477C130.955 80.1477 129.982 80.4432 129.141 81.0341C128.3 81.625 127.641 82.4053 127.163 83.375C126.694 84.3447 126.455 85.4053 126.447 86.5568V87.625C126.447 89.0114 126.686 90.2235 127.163 91.2614C127.648 92.2917 128.334 93.0909 129.22 93.6591C130.107 94.2273 131.156 94.5114 132.368 94.5114C133.194 94.5114 133.917 94.3826 134.538 94.125C135.167 93.8674 135.694 93.5227 136.118 93.0909C136.55 92.6515 136.875 92.1705 137.095 91.6477L139.016 92.2727C138.75 93.0076 138.315 93.6856 137.709 94.3068C137.11 94.928 136.36 95.428 135.459 95.8068C134.565 96.178 133.535 96.3636 132.368 96.3636ZM143.905 96V78.5455H145.871V81.2273H146.018C146.367 80.3485 146.973 79.6402 147.837 79.1023C148.708 78.5568 149.693 78.2841 150.791 78.2841C150.958 78.2841 151.143 78.2879 151.348 78.2955C151.553 78.303 151.723 78.3106 151.859 78.3182V80.375C151.768 80.3598 151.609 80.3371 151.382 80.3068C151.155 80.2765 150.909 80.2614 150.643 80.2614C149.734 80.2614 148.924 80.4545 148.212 80.8409C147.507 81.2197 146.95 81.7462 146.541 82.4205C146.132 83.0947 145.928 83.8636 145.928 84.7273V96H143.905ZM45.6847 135V111.727H59.1847V113.636H47.8097V122.398H58.4688V124.307H47.8097V133.091H59.4119V135H45.6847ZM65.5142 117.545L70.0142 124.989L74.5142 117.545H76.8665L71.2528 126.273L76.8665 135H74.5142L70.0142 127.795L65.5142 135H63.1733L68.7188 126.273L63.1733 117.545H65.5142ZM87.446 135.364C85.8172 135.364 84.4081 134.985 83.2188 134.227C82.0294 133.462 81.1089 132.405 80.4574 131.057C79.8134 129.701 79.4915 128.14 79.4915 126.375C79.4915 124.617 79.8134 123.057 80.4574 121.693C81.1089 120.322 82.0066 119.25 83.1506 118.477C84.3021 117.697 85.6316 117.307 87.1392 117.307C88.0862 117.307 88.9991 117.481 89.8778 117.83C90.7566 118.17 91.5445 118.697 92.2415 119.409C92.946 120.114 93.5028 121.004 93.9119 122.08C94.321 123.148 94.5256 124.413 94.5256 125.875V126.875H80.8892V125.091H92.4574C92.4574 123.97 92.2301 122.962 91.7756 122.068C91.3286 121.167 90.7036 120.455 89.9006 119.932C89.1051 119.409 88.1847 119.148 87.1392 119.148C86.0331 119.148 85.0597 119.443 84.2188 120.034C83.3778 120.625 82.7188 121.405 82.2415 122.375C81.7718 123.345 81.5331 124.405 81.5256 125.557V126.625C81.5256 128.011 81.7642 129.223 82.2415 130.261C82.7263 131.292 83.4119 132.091 84.2983 132.659C85.1847 133.227 86.2339 133.511 87.446 133.511C88.2718 133.511 88.9953 133.383 89.6165 133.125C90.2453 132.867 90.7718 132.523 91.196 132.091C91.6278 131.652 91.9536 131.17 92.1733 130.648L94.0938 131.273C93.8286 132.008 93.393 132.686 92.7869 133.307C92.1884 133.928 91.4384 134.428 90.5369 134.807C89.643 135.178 88.6127 135.364 87.446 135.364ZM98.983 135V117.545H100.949V120.227H101.097C101.445 119.348 102.051 118.64 102.915 118.102C103.786 117.557 104.771 117.284 105.869 117.284C106.036 117.284 106.222 117.288 106.426 117.295C106.631 117.303 106.801 117.311 106.938 117.318V119.375C106.847 119.36 106.688 119.337 106.46 119.307C106.233 119.277 105.987 119.261 105.722 119.261C104.813 119.261 104.002 119.455 103.29 119.841C102.585 120.22 102.028 120.746 101.619 121.42C101.21 122.095 101.006 122.864 101.006 123.727V135H98.983ZM116.676 135.364C115.116 135.364 113.756 134.973 112.597 134.193C111.445 133.413 110.551 132.345 109.915 130.989C109.278 129.633 108.96 128.087 108.96 126.352C108.96 124.602 109.282 123.045 109.926 121.682C110.578 120.318 111.479 119.25 112.631 118.477C113.782 117.697 115.119 117.307 116.642 117.307C117.809 117.307 118.866 117.534 119.812 117.989C120.759 118.436 121.54 119.068 122.153 119.886C122.775 120.697 123.165 121.644 123.324 122.727H121.278C121.066 121.742 120.555 120.902 119.744 120.205C118.941 119.5 117.919 119.148 116.676 119.148C115.563 119.148 114.578 119.451 113.722 120.057C112.866 120.655 112.195 121.492 111.71 122.568C111.233 123.636 110.994 124.875 110.994 126.284C110.994 127.701 111.229 128.955 111.699 130.045C112.169 131.129 112.828 131.977 113.676 132.591C114.532 133.205 115.532 133.511 116.676 133.511C117.449 133.511 118.153 133.367 118.79 133.08C119.434 132.784 119.972 132.367 120.403 131.83C120.843 131.292 121.138 130.652 121.29 129.909H123.335C123.184 130.962 122.809 131.902 122.21 132.727C121.619 133.545 120.85 134.189 119.903 134.659C118.964 135.129 117.888 135.364 116.676 135.364ZM127.693 135V117.545H129.727V135H127.693ZM128.727 114.545C128.311 114.545 127.955 114.405 127.659 114.125C127.364 113.837 127.216 113.492 127.216 113.091C127.216 112.689 127.364 112.348 127.659 112.068C127.955 111.78 128.311 111.636 128.727 111.636C129.144 111.636 129.5 111.78 129.795 112.068C130.091 112.348 130.239 112.689 130.239 113.091C130.239 113.492 130.091 113.837 129.795 114.125C129.5 114.405 129.144 114.545 128.727 114.545ZM146.804 121.375L144.952 121.898C144.77 121.375 144.512 120.902 144.179 120.477C143.846 120.053 143.41 119.716 142.872 119.466C142.342 119.216 141.683 119.091 140.895 119.091C139.713 119.091 138.743 119.371 137.986 119.932C137.228 120.492 136.849 121.216 136.849 122.102C136.849 122.852 137.107 123.462 137.622 123.932C138.145 124.394 138.948 124.761 140.031 125.034L142.668 125.682C144.13 126.038 145.224 126.602 145.952 127.375C146.687 128.148 147.054 129.117 147.054 130.284C147.054 131.269 146.781 132.144 146.236 132.909C145.69 133.674 144.929 134.277 143.952 134.716C142.982 135.148 141.857 135.364 140.577 135.364C138.872 135.364 137.467 134.981 136.361 134.216C135.255 133.443 134.546 132.33 134.236 130.875L136.179 130.398C136.429 131.436 136.918 132.22 137.645 132.75C138.38 133.28 139.346 133.545 140.543 133.545C141.884 133.545 142.955 133.246 143.759 132.648C144.562 132.042 144.963 131.284 144.963 130.375C144.963 129.67 144.728 129.08 144.259 128.602C143.789 128.117 143.077 127.761 142.122 127.534L139.27 126.852C137.755 126.489 136.634 125.913 135.906 125.125C135.179 124.337 134.815 123.36 134.815 122.193C134.815 121.231 135.077 120.386 135.599 119.659C136.122 118.924 136.842 118.348 137.759 117.932C138.675 117.515 139.721 117.307 140.895 117.307C142.493 117.307 143.77 117.67 144.724 118.398C145.687 119.117 146.38 120.11 146.804 121.375ZM158.54 135.364C156.911 135.364 155.502 134.985 154.312 134.227C153.123 133.462 152.203 132.405 151.551 131.057C150.907 129.701 150.585 128.14 150.585 126.375C150.585 124.617 150.907 123.057 151.551 121.693C152.203 120.322 153.1 119.25 154.244 118.477C155.396 117.697 156.725 117.307 158.233 117.307C159.18 117.307 160.093 117.481 160.972 117.83C161.85 118.17 162.638 118.697 163.335 119.409C164.04 120.114 164.597 121.004 165.006 122.08C165.415 123.148 165.619 124.413 165.619 125.875V126.875H151.983V125.091H163.551C163.551 123.97 163.324 122.962 162.869 122.068C162.422 121.167 161.797 120.455 160.994 119.932C160.199 119.409 159.278 119.148 158.233 119.148C157.127 119.148 156.153 119.443 155.312 120.034C154.472 120.625 153.813 121.405 153.335 122.375C152.866 123.345 152.627 124.405 152.619 125.557V126.625C152.619 128.011 152.858 129.223 153.335 130.261C153.82 131.292 154.506 132.091 155.392 132.659C156.278 133.227 157.328 133.511 158.54 133.511C159.366 133.511 160.089 133.383 160.71 133.125C161.339 132.867 161.866 132.523 162.29 132.091C162.722 131.652 163.047 131.17 163.267 130.648L165.188 131.273C164.922 132.008 164.487 132.686 163.881 133.307C163.282 133.928 162.532 134.428 161.631 134.807C160.737 135.178 159.706 135.364 158.54 135.364Z" fill="#482344"/>
</svg>
